# xmcd
#
# Track frame offsets:
#   150
#   15811
#   32011
#
# Disc length: 1024 seconds
#
# Revision: 0
# Processed by: cddbd v1.5.1PL2 Copyright (c) Steve Scherf et al.
# Submitted via: GXTranscoder 2.0.1939
#
DISCID=1103fe03
DTITLE=50 Cent - Candy Shop
DYEAR=1900
DGENRE=Blues
TTITLE0=Candy Shop
TTITLE1=Disco Inferno
TTITLE2=Candy Shop instrumental
EXTD=
EXTT0=
EXTT1=
EXTT2=
PLAYORDER=
